<svg xmlns="http://www.w3.org/2000/svg" width="133.59" height="55.213" viewBox="0 0 133.59 55.213">
  <g id="Logos" transform="translate(110.29 179.675)">
    <g id="Disney" transform="translate(-110.29 -179.675)">
      <path id="Caminho_10" data-name="Caminho 10" d="M42.017,21.862a72.988,72.988,0,0,1-8.234.846l-.712,2.314a35.3,35.3,0,0,1,5.118,0,.788.788,0,0,1,.757.757,13.349,13.349,0,0,1,.045,1.78.89.89,0,0,1-.8.668c-.8,0-6.409.356-6.409.356l-.89,3.071s-.356.668.4.49a57.324,57.324,0,0,1,7.344-1.157A2.136,2.136,0,0,1,40.1,33.3a14.465,14.465,0,0,1-10.014,4.673,4.451,4.451,0,0,1-3.427-2.4c-1.513-2.4.534-6.943.534-6.943s-.935-2.136-.223-2.893a2.537,2.537,0,0,1,1.513-.445l1.469-2.982a3.294,3.294,0,0,1-2.626-1.068c-.89-1.157-.935-1.691-.267-2a48.423,48.423,0,0,1,12.2-1.424s1.647,0,3.071,2.626c0,0,.668,1.157-.49,1.424Z" transform="translate(73.567 2.15)" fill="#337eff"/>
      <path id="Caminho_11" data-name="Caminho 11" d="M37.668,35.434a3.071,3.071,0,0,1-4.095,2C31.615,36.5,28.5,30.182,28.5,30.182s-1.157-2.359-1.38-2.27-.267-.49-.4,2.092,0,7.566-1.024,8.367a1.869,1.869,0,0,1-2.759-.49,14.02,14.02,0,0,1-.445-6.854A20.518,20.518,0,0,1,24.805,21.9a1.469,1.469,0,0,1,2.4,0,28.262,28.262,0,0,1,4.006,5.341l.4.757a37.43,37.43,0,0,0,2.537,3.783.267.267,0,0,0,.356,0s0-1.335,0-1.335a68.273,68.273,0,0,0-2.537-11.038,3.383,3.383,0,0,1,0-1.736c0-.757,1.024-.4,1.024-.4a10.86,10.86,0,0,1,4.762,6.765,19.45,19.45,0,0,1,0,11.349Z" transform="translate(60.291 0.016)" fill="#337eff"/>
      <path id="Caminho_12" data-name="Caminho 12" d="M37.3,20c-.312.534-.445,1.291-1.78,1.469a78.289,78.289,0,0,0-13.575,1.825s-.4.534.267.668,3.694.534,5.074.623,6.543,0,8.412,2.314A5.163,5.163,0,0,1,36.72,30.46c0,2.492-.49,3.383-1.469,4.451s-9.792,4.807-15.444-1.246a3.2,3.2,0,0,1,.89-5.074s2.537-1.558,8.9.267c0,0,1.914.668,1.869,1.38s-1.6,1.558-3.783,1.513a6.988,6.988,0,0,1-3.294-.89c.267,0-2.27-1.246-3.071-.312s-.579,1.335,0,1.869a13.975,13.975,0,0,0,11.794-1.825s.89-1.024-.49-1.825a20.607,20.607,0,0,0-6.81-1.335c-1.424,0-6.854,0-7.655-1.424,0,0-.757-.979,0-3.739s7.166-4.006,9.925-4.451c0,0,7.522-.312,8.9,1.246a1.024,1.024,0,0,1,0,.846Z" transform="translate(44.994 2.098)" fill="#337eff"/>
      <path id="Caminho_13" data-name="Caminho 13" d="M20.612,36.528a2.938,2.938,0,0,1-3.383-.4,18.6,18.6,0,0,1-.623-7.522A28.307,28.307,0,0,1,17.764,18.28c.935-.846,1.513,0,1.914.445a4.451,4.451,0,0,1,.979,2.537c0,1.38.445,8.323.445,8.323s.4,6.32-.445,6.988Z" transform="translate(40.317 2.527)" fill="#337eff"/>
      <path class="ponto" id="Caminho_14" data-name="Caminho 14" d="M30.682,15.685h0c-.668-2-4.451-1.736-4.451-1.736a11.394,11.394,0,0,0-10.637,7.433,4.451,4.451,0,0,0,1.335,4.451,2.225,2.225,0,0,0,0,2c0,.356.8,1.6,1.558,1.513s.89-.4,1.558-1.647a7.922,7.922,0,0,0,6.053,0h0c4.095-1.424,8.145-5.519,8.145-8.9S30.682,15.685,30.682,15.685ZM18.4,23.118c-.356-.534-.312-1.246.445-2.537a5.83,5.83,0,0,1,4.451-2.626,19.227,19.227,0,0,0-4.9,5.163Zm12.907-2.4a8.9,8.9,0,0,1-9.747,4.05,15.711,15.711,0,0,1,7.967-6.276c2.8-.623,1.736,2.092,1.736,2.092Z" transform="translate(36.789 -11.212)" fill="#337eff"/>
      <path id="Caminho_15" data-name="Caminho 15" d="M48.055,20.057c-3.872-2.67-10.1,5.83-12.818,10.059a9.346,9.346,0,0,1,1.024-4.9s2.314-4.006,2.626-4.807.534-2.537,0-2.715a1.009,1.009,0,0,0-.979.356,18.381,18.381,0,0,0-5.875,10.014,8.456,8.456,0,0,0,.979,6.142A31.511,31.511,0,0,0,29.05,49.031a6.32,6.32,0,0,0,3.16,4.451c1.068.445,1.291-.89,1.291-.89a56.7,56.7,0,0,1,4.228-15.311h0c5.43,1.246,9.525-4.05,10.993-6.632S50.5,21.793,48.055,20.057ZM44.539,30.605a9.97,9.97,0,0,1-4.807,2A38.232,38.232,0,0,1,45.7,24.152c1.6-1.825,1.869,0,1.869,0a8.056,8.056,0,0,1-3.027,6.454Z" transform="translate(83.73 1.641)" fill="#337eff"/>
      <path id="Caminho_16" data-name="Caminho 16" d="M39.493,18.911s-17.8-9.124-32.579-4.05A2.314,2.314,0,0,0,5,16.329c-.846,1.2-1.6,2.047-1.157,2.937S6.557,20.6,8.56,19.89c0,0,.935-.579,0-.935a10.815,10.815,0,0,0-1.78-.49s-.579,0,0-.445a33.336,33.336,0,0,1,19.138.623C37.8,21.67,53.869,31.239,53.423,41.209S37.356,51.624,37.356,51.624A34.983,34.983,0,0,1,29.835,51c0-3.249-.223-8.9-.223-12.24,6.142,0,12.284,1.024,12.774,2.581,0,0,.312.668-1.068,1.335S39.092,43.7,40.16,44.191a6.632,6.632,0,0,0,2.492.623,4.451,4.451,0,0,0,3.694-3.872c.223-2.759-2.937-5.163-7.7-6.008a34.049,34.049,0,0,0-8.9-.757,20.785,20.785,0,0,0-1.068-7.566c-.846-1.157-1.736-2.67-2.448-.935a33.114,33.114,0,0,0-1.246,8.9,23.856,23.856,0,0,0-12.2,5.029,3.16,3.16,0,0,0,0,4.451,28.93,28.93,0,0,0,11.705,8.9,10.326,10.326,0,0,0,.935,3.872c1.246,1.78,3.472.534,3.739.223s.4-.846.49-2.27a31.155,31.155,0,0,0,16.779,0C56.761,51.668,58.23,45.259,58.5,41.432S56.227,27.367,39.493,18.911ZM24.627,49.487A26.7,26.7,0,0,1,13.9,42.722a1.157,1.157,0,0,1,.49-2,31.734,31.734,0,0,1,10.593-2.136C24.983,41.61,25.028,43.7,24.627,49.487Z" transform="translate(-3.71 -13.325)" fill="#337eff"/>
    </g>
  </g>
</svg>
