<svg id="logoDisney" xmlns="http://www.w3.org/2000/svg" width="60" height="60" viewBox="0 0 60 60">
  <rect id="Retângulo_40" data-name="Retângulo 40" width="60" height="60" rx="10" fill="none"/>
  <path id="Caminho_5" data-name="Caminho 5" d="M33.831,51.524a30.945,30.945,0,0,1-7.709-.945c-3.139-.822-6.355-3.325-6.431-6.519-.054-2.308,1.487-5.561,9.136-7.953,8.285-2.589,12.8-1.367,14.262.642a2.761,2.761,0,0,1,.044,3.3,1.5,1.5,0,0,1-2.533-1.6c-.512-.5-3.5-1.782-10.883.527-4.445,1.389-7.073,3.265-7.032,5.018.035,1.437,1.914,3.091,4.192,3.687C32.3,49.1,40.64,48.958,46.151,45.309a10.359,10.359,0,0,0,4.258-9.775c-.669-4.916-4.884-8.875-11.867-11.146C22.974,19.324,8.807,26.17,8.665,26.24a1.5,1.5,0,0,1-1.332-2.689c.62-.307,15.373-7.468,32.137-2.016,10.981,3.571,13.429,10.05,13.912,13.6a13.274,13.274,0,0,1-5.574,12.68C43.8,50.466,38.651,51.524,33.831,51.524Z" fill="#337eff"/>
  <path id="Caminho_6" data-name="Caminho 6" d="M34.732,55.5a1.5,1.5,0,0,1-1.423-1.027L24.946,29.321a1.5,1.5,0,0,1,2.848-.946l8.362,25.152a1.5,1.5,0,0,1-.95,1.9,1.479,1.479,0,0,1-.474.073Z" fill="#337eff"/>
  <path id="Caminho_7" data-name="Caminho 7" d="M52,15.5H40a1.5,1.5,0,1,1,0-3H52a1.5,1.5,0,0,1,0,3Z" fill="#478bff"/>
  <path id="Caminho_8" data-name="Caminho 8" d="M46,21.5A1.5,1.5,0,0,1,44.5,20V8a1.5,1.5,0,0,1,3,0V20A1.5,1.5,0,0,1,46,21.5Z" fill="#478bff"/>
  <path id="Caminho_9" data-name="Caminho 9" d="M26.5,50.628a1.515,1.515,0,0,1-.381-.049c-3.139-.822-6.355-3.325-6.431-6.519-.054-2.308,1.487-5.561,9.136-7.953,8.285-2.589,12.8-1.367,14.262.642a2.761,2.761,0,0,1,.044,3.3,1.5,1.5,0,0,1-2.53-1.6c-.512-.5-3.5-1.782-10.883.527-4.445,1.389-7.073,3.265-7.032,5.018.035,1.437,1.914,3.091,4.192,3.687a1.5,1.5,0,0,1-.379,2.952Z" fill="#337eff"/>
</svg>
